<svg version="1.2" baseProfile="tiny-ps" xmlns="http://www.w3.org/2000/svg" viewBox="0 0 176 24" width="176" height="24">
	<title>New Project</title>
	<style>
		tspan { white-space:pre }
	</style>
	<path fill="#000000" aria-label="SelfRegulator"  d="M9.01 19.29C13.81 19.29 16.14 16.89 16.14 14.08C16.14 7.91 6.37 10.05 6.37 6.95C6.37 5.9 7.26 5.03 9.56 5.03C11.05 5.03 12.66 5.46 14.22 6.35L15.42 3.4C13.86 2.42 11.7 1.91 9.59 1.91C4.81 1.91 2.51 4.29 2.51 7.14C2.51 13.38 12.28 11.22 12.28 14.37C12.28 15.4 11.34 16.17 9.04 16.17C7.02 16.17 4.91 15.45 3.49 14.42L2.17 17.34C3.66 18.5 6.35 19.29 9.01 19.29ZM31.19 12.59C31.19 8.44 28.26 5.9 24.47 5.9C20.53 5.9 17.58 8.68 17.58 12.54C17.58 16.38 20.48 19.19 24.95 19.19C27.28 19.19 29.08 18.47 30.28 17.1L28.28 14.94C27.4 15.78 26.41 16.19 25.04 16.19C23.08 16.19 21.71 15.21 21.35 13.6L31.12 13.6C31.14 13.29 31.19 12.88 31.19 12.59ZM24.49 8.73C26.17 8.73 27.4 9.78 27.66 11.42L21.3 11.42C21.56 9.76 22.79 8.73 24.49 8.73ZM33.68 19L37.43 19L37.43 1.19L33.68 1.19ZM45.01 5.82C45.01 4.55 45.61 3.95 46.72 3.95C47.29 3.95 47.82 4.12 48.23 4.41L49.21 1.7C48.52 1.22 47.41 1 46.36 1C43.14 1 41.36 2.9 41.36 5.8L41.36 6.38L39.37 6.38L39.37 9.26L41.36 9.26L41.36 19L45.11 19L45.11 9.26L48.32 9.26L48.32 6.38L45.01 6.38ZM65.34 19L61.57 13.6C63.76 12.66 65.03 10.82 65.03 8.3C65.03 4.53 62.22 2.2 57.73 2.2L50.46 2.2L50.46 19L54.35 19L54.35 14.32L57.73 14.32L57.92 14.32L61.16 19ZM61.09 8.3C61.09 10.12 59.89 11.22 57.52 11.22L54.35 11.22L54.35 5.37L57.52 5.37C59.89 5.37 61.09 6.45 61.09 8.3ZM80.48 12.59C80.48 8.44 77.56 5.9 73.76 5.9C69.83 5.9 66.88 8.68 66.88 12.54C66.88 16.38 69.78 19.19 74.24 19.19C76.57 19.19 78.37 18.47 79.57 17.1L77.58 14.94C76.69 15.78 75.71 16.19 74.34 16.19C72.37 16.19 71 15.21 70.64 13.6L80.41 13.6C80.44 13.29 80.48 12.88 80.48 12.59ZM73.79 8.73C75.47 8.73 76.69 9.78 76.96 11.42L70.6 11.42C70.86 9.76 72.08 8.73 73.79 8.73ZM92.75 6.09L92.75 7.74C91.76 6.5 90.28 5.9 88.48 5.9C84.9 5.9 82.02 8.37 82.02 12.14C82.02 15.9 84.9 18.38 88.48 18.38C90.16 18.38 91.57 17.85 92.56 16.77L92.56 17.32C92.56 19.65 91.4 20.85 88.76 20.85C87.11 20.85 85.31 20.27 84.2 19.38L82.72 22.07C84.23 23.25 86.6 23.85 89.05 23.85C93.71 23.85 96.3 21.64 96.3 16.84L96.3 6.09ZM89.22 15.3C87.25 15.3 85.81 14.03 85.81 12.14C85.81 10.24 87.25 8.97 89.22 8.97C91.19 8.97 92.6 10.24 92.6 12.14C92.6 14.03 91.19 15.3 89.22 15.3ZM109.04 6.09L109.04 12.47C109.04 14.85 107.8 15.95 106.07 15.95C104.41 15.95 103.45 14.99 103.45 12.83L103.45 6.09L99.71 6.09L99.71 13.38C99.71 17.37 101.99 19.19 105.23 19.19C106.81 19.19 108.25 18.59 109.24 17.46L109.24 19L112.79 19L112.79 6.09ZM116.27 19L120.01 19L120.01 1.19L116.27 1.19ZM128.7 5.9C126.64 5.9 124.55 6.45 123.13 7.46L124.48 10.07C125.41 9.33 126.83 8.87 128.2 8.87C130.21 8.87 131.17 9.81 131.17 11.42L128.2 11.42C124.26 11.42 122.65 13 122.65 15.28C122.65 17.51 124.45 19.19 127.48 19.19C129.37 19.19 130.72 18.57 131.41 17.39L131.41 19L134.92 19L134.92 11.63C134.92 7.72 132.64 5.9 128.7 5.9ZM128.41 16.67C127.09 16.67 126.3 16.05 126.3 15.11C126.3 14.25 126.85 13.6 128.6 13.6L131.17 13.6L131.17 14.92C130.74 16.1 129.66 16.67 128.41 16.67ZM145.62 15.74C145.21 16.05 144.66 16.22 144.11 16.22C143.1 16.22 142.5 15.62 142.5 14.51L142.5 9.26L145.72 9.26L145.72 6.38L142.5 6.38L142.5 3.23L138.76 3.23L138.76 6.38L136.76 6.38L136.76 9.26L138.76 9.26L138.76 14.56C138.76 17.63 140.53 19.19 143.58 19.19C144.73 19.19 145.86 18.93 146.63 18.38ZM154.48 19.19C158.58 19.19 161.56 16.43 161.56 12.54C161.56 8.66 158.58 5.9 154.48 5.9C150.37 5.9 147.37 8.66 147.37 12.54C147.37 16.43 150.37 19.19 154.48 19.19ZM154.48 16.12C152.6 16.12 151.16 14.78 151.16 12.54C151.16 10.31 152.6 8.97 154.48 8.97C156.35 8.97 157.76 10.31 157.76 12.54C157.76 14.78 156.35 16.12 154.48 16.12ZM167.63 7.79L167.63 6.09L164.05 6.09L164.05 19L167.8 19L167.8 12.9C167.8 10.43 169.16 9.3 171.23 9.3C171.52 9.3 171.76 9.33 172.07 9.35L172.07 5.9C170.08 5.9 168.54 6.54 167.63 7.79Z" />
</svg>